solid D1Mirror
facet normal -0.0 -1.0 -1.6653345369377348e-16
  outer loop
    vertex 81.4095621356787 28.61618554637218 14.000000000000028
    vertex 86.40956213567871 28.61618554637218 14.000000000000028
    vertex 81.4095621356787 28.61618554637214 19.99999999999999
  endloop
endfacet
facet normal -0.0 -1.0 -1.6653345369377348e-16
  outer loop
    vertex 91.40956213567873 28.61618554637218 14.000000000000028
    vertex 81.4095621356787 28.61618554637214 19.99999999999999
    vertex 86.40956213567871 28.61618554637218 14.000000000000028
  endloop
endfacet
facet normal -0.0 -1.0 -1.6653345369377348e-16
  outer loop
    vertex 91.40956213567873 28.61618554637214 19.99999999999999
    vertex 81.4095621356787 28.61618554637214 19.99999999999999
    vertex 91.40956213567873 28.61618554637218 14.000000000000028
  endloop
endfacet
facet normal -1.0 0.0 0.0
  outer loop
    vertex 91.40956213567873 -1.3838144536278518 20.000000000000018
    vertex 91.40956213567873 28.61618554637214 19.99999999999999
    vertex 91.40956213567873 -1.3838144536278425 14.000000000000014
  endloop
endfacet
facet normal -1.0 0.0 0.0
  outer loop
    vertex 91.40956213567873 28.61618554637218 14.000000000000028
    vertex 91.40956213567873 -1.3838144536278425 14.000000000000014
    vertex 91.40956213567873 28.61618554637214 19.99999999999999
  endloop
endfacet
facet normal 0.0 -1.6653345369377348e-16 1.0
  outer loop
    vertex 91.40956213567873 -1.3838144536278425 14.000000000000014
    vertex 91.40956213567873 28.61618554637218 14.000000000000028
    vertex 81.4095621356787 -1.3838144536278425 14.000000000000014
  endloop
endfacet
facet normal 0.0 -1.6653345369377348e-16 1.0
  outer loop
    vertex 86.40956213567871 28.61618554637218 14.000000000000028
    vertex 81.4095621356787 -1.3838144536278425 14.000000000000014
    vertex 91.40956213567873 28.61618554637218 14.000000000000028
  endloop
endfacet
facet normal 0.0 -1.6653345369377348e-16 1.0
  outer loop
    vertex 81.4095621356787 28.61618554637218 14.000000000000028
    vertex 81.4095621356787 -1.3838144536278425 14.000000000000014
    vertex 86.40956213567871 28.61618554637218 14.000000000000028
  endloop
endfacet
facet normal -0.0 -1.0 -1.6653345369377348e-16
  outer loop
    vertex 81.4095621356787 -1.3838144536278574 9.999999999999986
    vertex 111.40956213567871 -1.3838144536278574 9.999999999999986
    vertex 81.4095621356787 -1.3838144536278425 14.000000000000014
  endloop
endfacet
facet normal -0.0 -1.0 -1.6653345369377348e-16
  outer loop
    vertex 91.40956213567873 -1.3838144536278425 14.000000000000014
    vertex 81.4095621356787 -1.3838144536278425 14.000000000000014
    vertex 111.40956213567871 -1.3838144536278574 9.999999999999986
  endloop
endfacet
facet normal -0.0 -1.0 -1.6653345369377348e-16
  outer loop
    vertex 111.40956213567871 -1.3838144536278518 20.000000000000018
    vertex 91.40956213567873 -1.3838144536278425 14.000000000000014
    vertex 111.40956213567871 -1.3838144536278574 9.999999999999986
  endloop
endfacet
facet normal -0.0 -1.0 -1.6653345369377348e-16
  outer loop
    vertex 91.40956213567873 -1.3838144536278518 20.000000000000018
    vertex 91.40956213567873 -1.3838144536278425 14.000000000000014
    vertex 111.40956213567871 -1.3838144536278518 20.000000000000018
  endloop
endfacet
facet normal 0.0 1.6653345369377348e-16 -1.0
  outer loop
    vertex 111.40956213567871 38.616185546372115 10.0
    vertex 111.40956213567871 -1.3838144536278574 9.999999999999986
    vertex 81.4095621356787 38.616185546372115 10.0
  endloop
endfacet
facet normal 0.0 1.6653345369377348e-16 -1.0
  outer loop
    vertex 81.4095621356787 -1.3838144536278574 9.999999999999986
    vertex 81.4095621356787 38.616185546372115 10.0
    vertex 111.40956213567871 -1.3838144536278574 9.999999999999986
  endloop
endfacet
facet normal -1.0 0.0 0.0
  outer loop
    vertex 81.4095621356787 -1.3838144536278574 9.999999999999986
    vertex 81.4095621356787 -1.3838144536278425 14.000000000000014
    vertex 81.4095621356787 38.616185546372115 10.0
  endloop
endfacet
facet normal -1.0 0.0 0.0
  outer loop
    vertex 81.4095621356787 28.61618554637218 14.000000000000028
    vertex 81.4095621356787 38.616185546372115 10.0
    vertex 81.4095621356787 -1.3838144536278425 14.000000000000014
  endloop
endfacet
facet normal -1.0 0.0 0.0
  outer loop
    vertex 81.4095621356787 38.61618554637208 20.000000000000007
    vertex 81.4095621356787 38.616185546372115 10.0
    vertex 81.4095621356787 28.61618554637218 14.000000000000028
  endloop
endfacet
facet normal -1.0 0.0 0.0
  outer loop
    vertex 81.4095621356787 28.61618554637218 14.000000000000028
    vertex 81.4095621356787 28.61618554637214 19.99999999999999
    vertex 81.4095621356787 38.61618554637208 20.000000000000007
  endloop
endfacet
facet normal -2.0558421347267234e-16 1.0 7.91033905045424e-16
  outer loop
    vertex 111.40956213567871 38.616185546372115 10.0
    vertex 81.4095621356787 38.616185546372115 10.0
    vertex 111.40956213567871 38.6161855463721 20.000000000000007
  endloop
endfacet
facet normal -2.0558421347267234e-16 1.0 7.91033905045424e-16
  outer loop
    vertex 81.4095621356787 38.61618554637208 20.000000000000007
    vertex 111.40956213567871 38.6161855463721 20.000000000000007
    vertex 81.4095621356787 38.616185546372115 10.0
  endloop
endfacet
facet normal 1.0 0.0 0.0
  outer loop
    vertex 111.40956213567871 -1.3838144536278574 9.999999999999986
    vertex 111.40956213567871 38.616185546372115 10.0
    vertex 111.40956213567871 -1.3838144536278518 20.000000000000018
  endloop
endfacet
facet normal 1.0 0.0 0.0
  outer loop
    vertex 111.40956213567871 38.6161855463721 20.000000000000007
    vertex 111.40956213567871 -1.3838144536278518 20.000000000000018
    vertex 111.40956213567871 38.616185546372115 10.0
  endloop
endfacet
facet normal -1.3069135430636439e-17 -1.6653345369377348e-16 1.0
  outer loop
    vertex 111.40956213567871 -1.3838144536278518 20.000000000000018
    vertex 111.40956213567871 38.6161855463721 20.000000000000007
    vertex 91.40956213567873 -1.3838144536278518 20.000000000000018
  endloop
endfacet
facet normal -1.3069135430636439e-17 -1.6653345369377348e-16 1.0
  outer loop
    vertex 91.40956213567873 28.61618554637214 19.99999999999999
    vertex 91.40956213567873 -1.3838144536278518 20.000000000000018
    vertex 111.40956213567871 38.6161855463721 20.000000000000007
  endloop
endfacet
facet normal -1.3069135430636439e-17 -1.6653345369377348e-16 1.0
  outer loop
    vertex 81.4095621356787 38.61618554637208 20.000000000000007
    vertex 91.40956213567873 28.61618554637214 19.99999999999999
    vertex 111.40956213567871 38.6161855463721 20.000000000000007
  endloop
endfacet
facet normal -1.3069135430636439e-17 -1.6653345369377348e-16 1.0
  outer loop
    vertex 81.4095621356787 28.61618554637214 19.99999999999999
    vertex 91.40956213567873 28.61618554637214 19.99999999999999
    vertex 81.4095621356787 38.61618554637208 20.000000000000007
  endloop
endfacet
endsolid D1Mirror
